<mxfile host="app.diagrams.net" agent="Mozilla/5.0 (Windows NT 10.0; Win64; x64) AppleWebKit/537.36 (KHTML, like Gecko) Chrome/130.0.0.0 Safari/537.36 Edg/130.0.0.0" version="24.8.4">
  <diagram name="Page-1" id="JERWbFUJBVESGL7-T9fH">
    <mxGraphModel dx="834" dy="709" grid="1" gridSize="10" guides="1" tooltips="1" connect="1" arrows="1" fold="1" page="1" pageScale="1" pageWidth="827" pageHeight="1169" math="0" shadow="0">
      <root>
        <mxCell id="0" />
        <mxCell id="1" parent="0" />
        <mxCell id="-ajBZmfgZKVgLJCaH3LQ-2" value="RP/WAF" style="ellipse;whiteSpace=wrap;html=1;aspect=fixed;" parent="1" vertex="1">
          <mxGeometry x="150" y="200" width="80" height="80" as="geometry" />
        </mxCell>
        <mxCell id="-ajBZmfgZKVgLJCaH3LQ-17" style="rounded=0;orthogonalLoop=1;jettySize=auto;html=1;entryX=0;entryY=0.5;entryDx=0;entryDy=0;" parent="1" source="-ajBZmfgZKVgLJCaH3LQ-3" target="-ajBZmfgZKVgLJCaH3LQ-5" edge="1">
          <mxGeometry relative="1" as="geometry" />
        </mxCell>
        <mxCell id="-ajBZmfgZKVgLJCaH3LQ-3" value="Website" style="ellipse;whiteSpace=wrap;html=1;aspect=fixed;" parent="1" vertex="1">
          <mxGeometry x="150" y="440" width="80" height="80" as="geometry" />
        </mxCell>
        <mxCell id="-ajBZmfgZKVgLJCaH3LQ-4" value="DB RP/WAF" style="shape=partialRectangle;whiteSpace=wrap;html=1;left=0;right=0;fillColor=none;" parent="1" vertex="1">
          <mxGeometry x="370" y="140" width="120" height="80" as="geometry" />
        </mxCell>
        <mxCell id="-ajBZmfgZKVgLJCaH3LQ-5" value="DB WS" style="shape=partialRectangle;whiteSpace=wrap;html=1;left=0;right=0;fillColor=none;" parent="1" vertex="1">
          <mxGeometry x="294" y="530" width="120" height="80" as="geometry" />
        </mxCell>
        <mxCell id="-ajBZmfgZKVgLJCaH3LQ-15" style="rounded=0;orthogonalLoop=1;jettySize=auto;html=1;entryX=0.5;entryY=0;entryDx=0;entryDy=0;" parent="1" source="-ajBZmfgZKVgLJCaH3LQ-6" target="-ajBZmfgZKVgLJCaH3LQ-5" edge="1">
          <mxGeometry relative="1" as="geometry" />
        </mxCell>
        <mxCell id="-ajBZmfgZKVgLJCaH3LQ-6" value="API" style="ellipse;whiteSpace=wrap;html=1;aspect=fixed;" parent="1" vertex="1">
          <mxGeometry x="390" y="410" width="80" height="80" as="geometry" />
        </mxCell>
        <mxCell id="-ajBZmfgZKVgLJCaH3LQ-7" value="RP Admin" style="ellipse;whiteSpace=wrap;html=1;aspect=fixed;" parent="1" vertex="1">
          <mxGeometry x="390" y="270" width="80" height="80" as="geometry" />
        </mxCell>
        <mxCell id="-ajBZmfgZKVgLJCaH3LQ-8" value="" style="endArrow=classic;html=1;fontColor=#FF3333;rounded=0;exitX=0.5;exitY=1;exitDx=0;exitDy=0;entryX=0.5;entryY=0;entryDx=0;entryDy=0;" parent="1" source="-ajBZmfgZKVgLJCaH3LQ-7" target="-ajBZmfgZKVgLJCaH3LQ-6" edge="1">
          <mxGeometry width="50" height="50" relative="1" as="geometry">
            <mxPoint x="500" y="190" as="sourcePoint" />
            <mxPoint x="550" y="140" as="targetPoint" />
          </mxGeometry>
        </mxCell>
        <mxCell id="-ajBZmfgZKVgLJCaH3LQ-9" value="User" style="rounded=0;whiteSpace=wrap;html=1;" parent="1" vertex="1">
          <mxGeometry x="50" y="50" width="120" height="60" as="geometry" />
        </mxCell>
        <mxCell id="-ajBZmfgZKVgLJCaH3LQ-11" value="" style="endArrow=classic;html=1;fontColor=#FF3333;rounded=0;exitX=0.5;exitY=1;exitDx=0;exitDy=0;entryX=0.5;entryY=0;entryDx=0;entryDy=0;" parent="1" source="-ajBZmfgZKVgLJCaH3LQ-9" target="-ajBZmfgZKVgLJCaH3LQ-2" edge="1">
          <mxGeometry width="50" height="50" relative="1" as="geometry">
            <mxPoint x="90" y="200" as="sourcePoint" />
            <mxPoint x="140" y="150" as="targetPoint" />
          </mxGeometry>
        </mxCell>
        <mxCell id="-ajBZmfgZKVgLJCaH3LQ-12" value="" style="endArrow=classic;html=1;fontColor=#FF3333;rounded=0;exitX=0.015;exitY=0.59;exitDx=0;exitDy=0;entryX=1;entryY=0.5;entryDx=0;entryDy=0;exitPerimeter=0;" parent="1" source="-ajBZmfgZKVgLJCaH3LQ-7" target="-ajBZmfgZKVgLJCaH3LQ-2" edge="1">
          <mxGeometry width="50" height="50" relative="1" as="geometry">
            <mxPoint x="390" y="160" as="sourcePoint" />
            <mxPoint x="390" y="240" as="targetPoint" />
          </mxGeometry>
        </mxCell>
        <mxCell id="-ajBZmfgZKVgLJCaH3LQ-13" value="" style="endArrow=classic;html=1;fontColor=#FF3333;rounded=0;exitX=0.015;exitY=0.59;exitDx=0;exitDy=0;entryX=0.5;entryY=0;entryDx=0;entryDy=0;exitPerimeter=0;" parent="1" target="-ajBZmfgZKVgLJCaH3LQ-3" edge="1">
          <mxGeometry width="50" height="50" relative="1" as="geometry">
            <mxPoint x="191" y="280" as="sourcePoint" />
            <mxPoint x="20" y="363" as="targetPoint" />
          </mxGeometry>
        </mxCell>
        <mxCell id="-ajBZmfgZKVgLJCaH3LQ-14" value="" style="endArrow=classic;html=1;fontColor=#FF3333;rounded=0;exitX=1;exitY=0.5;exitDx=0;exitDy=0;entryX=0;entryY=0.25;entryDx=0;entryDy=0;" parent="1" source="-ajBZmfgZKVgLJCaH3LQ-2" target="-ajBZmfgZKVgLJCaH3LQ-4" edge="1">
          <mxGeometry width="50" height="50" relative="1" as="geometry">
            <mxPoint x="250" y="270" as="sourcePoint" />
            <mxPoint x="360" y="290" as="targetPoint" />
          </mxGeometry>
        </mxCell>
        <mxCell id="-ajBZmfgZKVgLJCaH3LQ-19" value="" style="endArrow=classic;html=1;fontColor=#FF3333;rounded=0;exitX=0.5;exitY=1;exitDx=0;exitDy=0;entryX=0.5;entryY=0;entryDx=0;entryDy=0;" parent="1" source="-ajBZmfgZKVgLJCaH3LQ-4" target="-ajBZmfgZKVgLJCaH3LQ-7" edge="1">
          <mxGeometry width="50" height="50" relative="1" as="geometry">
            <mxPoint x="560" y="260" as="sourcePoint" />
            <mxPoint x="610" y="210" as="targetPoint" />
          </mxGeometry>
        </mxCell>
        <mxCell id="-ajBZmfgZKVgLJCaH3LQ-24" value="" style="edgeStyle=orthogonalEdgeStyle;rounded=0;orthogonalLoop=1;jettySize=auto;html=1;" parent="1" source="-ajBZmfgZKVgLJCaH3LQ-20" target="-ajBZmfgZKVgLJCaH3LQ-21" edge="1">
          <mxGeometry relative="1" as="geometry" />
        </mxCell>
        <mxCell id="-ajBZmfgZKVgLJCaH3LQ-20" value="TA01" style="text;html=1;strokeColor=#b85450;fillColor=#f8cecc;align=center;verticalAlign=middle;whiteSpace=wrap;overflow=hidden;" parent="1" vertex="1">
          <mxGeometry x="350" y="70" width="40" height="20" as="geometry" />
        </mxCell>
        <mxCell id="-ajBZmfgZKVgLJCaH3LQ-26" style="rounded=0;orthogonalLoop=1;jettySize=auto;html=1;exitX=0.5;exitY=1;exitDx=0;exitDy=0;entryX=0.5;entryY=0;entryDx=0;entryDy=0;" parent="1" source="-ajBZmfgZKVgLJCaH3LQ-21" target="-ajBZmfgZKVgLJCaH3LQ-2" edge="1">
          <mxGeometry relative="1" as="geometry" />
        </mxCell>
        <mxCell id="-ajBZmfgZKVgLJCaH3LQ-21" value="TA" style="rounded=0;whiteSpace=wrap;html=1;" parent="1" vertex="1">
          <mxGeometry x="190" y="50" width="120" height="60" as="geometry" />
        </mxCell>
        <mxCell id="-ajBZmfgZKVgLJCaH3LQ-30" style="rounded=0;orthogonalLoop=1;jettySize=auto;html=1;exitX=0;exitY=0.5;exitDx=0;exitDy=0;entryX=1;entryY=0.5;entryDx=0;entryDy=0;" parent="1" source="-ajBZmfgZKVgLJCaH3LQ-28" target="-ajBZmfgZKVgLJCaH3LQ-7" edge="1">
          <mxGeometry relative="1" as="geometry" />
        </mxCell>
        <mxCell id="-ajBZmfgZKVgLJCaH3LQ-28" value="Admin" style="rounded=0;whiteSpace=wrap;html=1;" parent="1" vertex="1">
          <mxGeometry x="580" y="280" width="120" height="60" as="geometry" />
        </mxCell>
        <mxCell id="C1h2SFKI0WjDFj5PaJ07-20" value="" style="shape=requiredInterface;html=1;verticalLabelPosition=bottom;dashed=1;strokeColor=#FF3333;strokeWidth=2;fillColor=none;fontColor=#FF3333;align=center;verticalAlign=top;labelPosition=center;rotation=-90;" vertex="1" parent="1">
          <mxGeometry x="170" y="40" width="20" height="250" as="geometry" />
        </mxCell>
        <mxCell id="C1h2SFKI0WjDFj5PaJ07-21" value="Trust Boundary" style="html=1;fontColor=#FF3333;fontStyle=1;align=left;verticalAlign=top;spacing=0;labelBorderColor=none;fillColor=none;dashed=1;strokeWidth=2;strokeColor=#FF3333;spacingLeft=4;spacingTop=-3;" vertex="1" parent="1">
          <mxGeometry x="537" y="10" width="290" height="140" as="geometry" />
        </mxCell>
        <mxCell id="C1h2SFKI0WjDFj5PaJ07-24" style="edgeStyle=orthogonalEdgeStyle;rounded=0;orthogonalLoop=1;jettySize=auto;html=1;" edge="1" parent="1" source="C1h2SFKI0WjDFj5PaJ07-22" target="C1h2SFKI0WjDFj5PaJ07-23">
          <mxGeometry relative="1" as="geometry" />
        </mxCell>
        <mxCell id="C1h2SFKI0WjDFj5PaJ07-25" style="edgeStyle=orthogonalEdgeStyle;rounded=0;orthogonalLoop=1;jettySize=auto;html=1;entryX=1;entryY=0.5;entryDx=0;entryDy=0;" edge="1" parent="1" source="C1h2SFKI0WjDFj5PaJ07-22" target="-ajBZmfgZKVgLJCaH3LQ-6">
          <mxGeometry relative="1" as="geometry" />
        </mxCell>
        <mxCell id="C1h2SFKI0WjDFj5PaJ07-22" value="IPS" style="ellipse;whiteSpace=wrap;html=1;aspect=fixed;" vertex="1" parent="1">
          <mxGeometry x="570" y="40" width="80" height="80" as="geometry" />
        </mxCell>
        <mxCell id="C1h2SFKI0WjDFj5PaJ07-23" value="IPS DB" style="shape=partialRectangle;whiteSpace=wrap;html=1;left=0;right=0;fillColor=none;" vertex="1" parent="1">
          <mxGeometry x="690" y="40" width="120" height="80" as="geometry" />
        </mxCell>
        <mxCell id="C1h2SFKI0WjDFj5PaJ07-26" value="" style="shape=requiredInterface;html=1;verticalLabelPosition=bottom;dashed=1;strokeColor=#FF3333;strokeWidth=2;fillColor=none;fontColor=#FF3333;align=center;verticalAlign=top;labelPosition=center;rotation=-67;" vertex="1" parent="1">
          <mxGeometry x="480" y="285" width="20" height="245" as="geometry" />
        </mxCell>
        <mxCell id="C1h2SFKI0WjDFj5PaJ07-28" value="" style="shape=requiredInterface;html=1;verticalLabelPosition=bottom;dashed=1;strokeColor=#FF3333;strokeWidth=2;fillColor=none;fontColor=#FF3333;align=center;verticalAlign=top;labelPosition=center;rotation=-90;" vertex="1" parent="1">
          <mxGeometry x="170" y="260" width="20" height="195" as="geometry" />
        </mxCell>
        <mxCell id="C1h2SFKI0WjDFj5PaJ07-31" value="Trust Boundary" style="html=1;fontColor=#FF3333;fontStyle=1;align=left;verticalAlign=top;spacing=0;labelBorderColor=none;fillColor=none;dashed=1;strokeWidth=2;strokeColor=#FF3333;spacingLeft=4;spacingTop=-3;" vertex="1" parent="1">
          <mxGeometry x="320" y="120" width="240" height="240" as="geometry" />
        </mxCell>
        <mxCell id="C1h2SFKI0WjDFj5PaJ07-32" value="Trust Boundary" style="html=1;fontColor=#FF3333;fontStyle=1;align=left;verticalAlign=top;spacing=0;labelBorderColor=none;fillColor=none;dashed=1;strokeWidth=2;strokeColor=#FF3333;spacingLeft=4;spacingTop=-3;" vertex="1" parent="1">
          <mxGeometry x="260" y="515" width="200" height="140" as="geometry" />
        </mxCell>
      </root>
    </mxGraphModel>
  </diagram>
</mxfile>
